<?xml version="1.0" encoding="utf-8"?>
<!-- Generator: Adobe Illustrator 27.6.1, SVG Export Plug-In . SVG Version: 6.00 Build 0)  -->
<svg version="1.1"
	 id="svg2" xmlns:svg="http://www.w3.org/2000/svg" xmlns:dc="http://purl.org/dc/elements/1.1/" xmlns:cc="http://creativecommons.org/ns#" xmlns:rdf="http://www.w3.org/1999/02/22-rdf-syntax-ns#"
	 xmlns="http://www.w3.org/2000/svg" xmlns:xlink="http://www.w3.org/1999/xlink" x="0px" y="0px" viewBox="0 0 1110.67 1013.33"
	 style="enable-background:new 0 0 1110.67 1013.33;" xml:space="preserve">
<style type="text/css">
	.st0{clip-path:url(#SVGID_00000064320024583042308190000017242910535635904665_);}
	.st1{opacity:0;}
	.st2{fill-rule:evenodd;clip-rule:evenodd;fill:#FF00DA;}
	.st3{opacity:0;fill-rule:evenodd;clip-rule:evenodd;fill:#FF0000;}
	.st4{fill-rule:evenodd;clip-rule:evenodd;fill:#FF006D;}
	.st5{opacity:0;fill-rule:evenodd;clip-rule:evenodd;fill:#FFDA00;}
	.st6{fill-rule:evenodd;clip-rule:evenodd;fill:#FF6D6D;}
	.st7{fill-rule:evenodd;clip-rule:evenodd;fill:#FF6D00;}
	.st8{fill-rule:evenodd;clip-rule:evenodd;fill:#FF4949;}
	.st9{fill-rule:evenodd;clip-rule:evenodd;fill:#48FF00;}
	.st10{fill-rule:evenodd;clip-rule:evenodd;fill:#A4806D;}
	.st11{fill-rule:evenodd;clip-rule:evenodd;fill:#A48000;}
	.st12{fill-rule:evenodd;clip-rule:evenodd;fill:#C25549;}
	.st13{fill-rule:evenodd;clip-rule:evenodd;fill:#A4ED00;}
	.st14{fill-rule:evenodd;clip-rule:evenodd;fill:#C29E49;}
	.st15{fill-rule:evenodd;clip-rule:evenodd;fill:#C29E00;}
	.st16{fill-rule:evenodd;clip-rule:evenodd;fill:#D17637;}
	.st17{opacity:0;fill-rule:evenodd;clip-rule:evenodd;fill:#00FF91;}
	.st18{fill-rule:evenodd;clip-rule:evenodd;fill:#8080B6;}
	.st19{fill-rule:evenodd;clip-rule:evenodd;fill:#808049;}
	.st20{fill-rule:evenodd;clip-rule:evenodd;fill:#AA5579;}
	.st21{fill-rule:evenodd;clip-rule:evenodd;fill:#80ED49;}
	.st22{fill-rule:evenodd;clip-rule:evenodd;fill:#AA9E79;}
	.st23{fill-rule:evenodd;clip-rule:evenodd;fill:#AA9E30;}
	.st24{fill-rule:evenodd;clip-rule:evenodd;fill:#BF765B;}
	.st25{fill-rule:evenodd;clip-rule:evenodd;fill:#24FF49;}
	.st26{fill-rule:evenodd;clip-rule:evenodd;fill:#6DAA79;}
	.st27{fill-rule:evenodd;clip-rule:evenodd;fill:#6DAA30;}
	.st28{fill-rule:evenodd;clip-rule:evenodd;fill:#92805B;}
	.st29{fill-rule:evenodd;clip-rule:evenodd;fill:#6DF330;}
	.st30{fill-rule:evenodd;clip-rule:evenodd;fill:#92B65B;}
	.st31{fill-rule:evenodd;clip-rule:evenodd;fill:#92B624;}
	.st32{fill-rule:evenodd;clip-rule:evenodd;fill:#A79249;}
	.st33{opacity:0;fill-rule:evenodd;clip-rule:evenodd;fill:#0091FF;}
	.st34{fill-rule:evenodd;clip-rule:evenodd;fill:#8049ED;}
	.st35{fill-rule:evenodd;clip-rule:evenodd;fill:#804980;}
	.st36{fill-rule:evenodd;clip-rule:evenodd;fill:#AA309E;}
	.st37{opacity:0;fill-rule:evenodd;clip-rule:evenodd;fill:#80B680;}
	.st38{fill-rule:evenodd;clip-rule:evenodd;fill:#AA799E;}
	.st39{opacity:0;fill-rule:evenodd;clip-rule:evenodd;fill:#AA7955;}
	.st40{fill-rule:evenodd;clip-rule:evenodd;fill:#BF5B76;}
	.st41{fill-rule:evenodd;clip-rule:evenodd;fill:#24C880;}
	.st42{fill-rule:evenodd;clip-rule:evenodd;fill:#6D859E;}
	.st43{fill-rule:evenodd;clip-rule:evenodd;fill:#6D8555;}
	.st44{fill-rule:evenodd;clip-rule:evenodd;fill:#926476;}
	.st45{fill-rule:evenodd;clip-rule:evenodd;fill:#6DCE55;}
	.st46{fill-rule:evenodd;clip-rule:evenodd;fill:#929B76;}
	.st47{fill-rule:evenodd;clip-rule:evenodd;fill:#929B40;}
	.st48{fill-rule:evenodd;clip-rule:evenodd;fill:#A77C5F;}
	.st49{opacity:0;fill-rule:evenodd;clip-rule:evenodd;fill:#00C8C8;}
	.st50{fill-rule:evenodd;clip-rule:evenodd;fill:#5585CE;}
	.st51{opacity:0;fill-rule:evenodd;clip-rule:evenodd;fill:#558585;}
	.st52{opacity:0;fill-rule:evenodd;clip-rule:evenodd;fill:#80649B;}
	.st53{fill-rule:evenodd;clip-rule:evenodd;fill:#55CE85;}
	.st54{opacity:0;fill-rule:evenodd;clip-rule:evenodd;fill:#809B9B;}
	.st55{fill-rule:evenodd;clip-rule:evenodd;fill:#809B64;}
	.st56{opacity:0;fill-rule:evenodd;clip-rule:evenodd;fill:#997C7C;}
	.st57{fill-rule:evenodd;clip-rule:evenodd;fill:#18DA85;}
	.st58{fill-rule:evenodd;clip-rule:evenodd;fill:#52A49B;}
	.st59{fill-rule:evenodd;clip-rule:evenodd;fill:#52A464;}
	.st60{fill-rule:evenodd;clip-rule:evenodd;fill:#74837C;}
	.st61{fill-rule:evenodd;clip-rule:evenodd;fill:#52DA64;}
	.st62{fill-rule:evenodd;clip-rule:evenodd;fill:#74AF7C;}
	.st63{fill-rule:evenodd;clip-rule:evenodd;fill:#74AF50;}
	.st64{fill-rule:evenodd;clip-rule:evenodd;fill:#8C9267;}
	.st65{opacity:0;fill-rule:evenodd;clip-rule:evenodd;fill:#4800FF;}
	.st66{fill-rule:evenodd;clip-rule:evenodd;fill:#A400ED;}
	.st67{fill-rule:evenodd;clip-rule:evenodd;fill:#A40080;}
	.st68{fill-rule:evenodd;clip-rule:evenodd;fill:#C2009E;}
	.st69{opacity:0;fill-rule:evenodd;clip-rule:evenodd;fill:#A46D80;}
	.st70{opacity:0;fill-rule:evenodd;clip-rule:evenodd;fill:#C2499E;}
	.st71{fill-rule:evenodd;clip-rule:evenodd;fill:#C24955;}
	.st72{opacity:0;fill-rule:evenodd;clip-rule:evenodd;fill:#D13776;}
	.st73{fill-rule:evenodd;clip-rule:evenodd;fill:#488080;}
	.st74{fill-rule:evenodd;clip-rule:evenodd;fill:#85559E;}
	.st75{fill-rule:evenodd;clip-rule:evenodd;fill:#855555;}
	.st76{fill-rule:evenodd;clip-rule:evenodd;fill:#A44076;}
	.st77{fill-rule:evenodd;clip-rule:evenodd;fill:#859E55;}
	.st78{fill-rule:evenodd;clip-rule:evenodd;fill:#A47676;}
	.st79{fill-rule:evenodd;clip-rule:evenodd;fill:#A47640;}
	.st80{fill-rule:evenodd;clip-rule:evenodd;fill:#B65F5F;}
	.st81{fill-rule:evenodd;clip-rule:evenodd;fill:#2480C8;}
	.st82{fill-rule:evenodd;clip-rule:evenodd;fill:#6D55CE;}
	.st83{fill-rule:evenodd;clip-rule:evenodd;fill:#6D5585;}
	.st84{fill-rule:evenodd;clip-rule:evenodd;fill:#92409B;}
	.st85{fill-rule:evenodd;clip-rule:evenodd;fill:#6D9E85;}
	.st86{fill-rule:evenodd;clip-rule:evenodd;fill:#92769B;}
	.st87{fill-rule:evenodd;clip-rule:evenodd;fill:#927664;}
	.st88{fill-rule:evenodd;clip-rule:evenodd;fill:#A75F7C;}
	.st89{fill-rule:evenodd;clip-rule:evenodd;fill:#30AA85;}
	.st90{fill-rule:evenodd;clip-rule:evenodd;fill:#64809B;}
	.st91{fill-rule:evenodd;clip-rule:evenodd;fill:#648064;}
	.st92{fill-rule:evenodd;clip-rule:evenodd;fill:#83667C;}
	.st93{fill-rule:evenodd;clip-rule:evenodd;fill:#64B664;}
	.st94{fill-rule:evenodd;clip-rule:evenodd;fill:#83927C;}
	.st95{fill-rule:evenodd;clip-rule:evenodd;fill:#839250;}
	.st96{fill-rule:evenodd;clip-rule:evenodd;fill:#987967;}
	.st97{fill-rule:evenodd;clip-rule:evenodd;fill:#2449FF;}
	.st98{fill-rule:evenodd;clip-rule:evenodd;fill:#6D30F3;}
	.st99{fill-rule:evenodd;clip-rule:evenodd;fill:#6D30AA;}
	.st100{fill-rule:evenodd;clip-rule:evenodd;fill:#9224B6;}
	.st101{opacity:0;fill-rule:evenodd;clip-rule:evenodd;fill:#6D79AA;}
	.st102{opacity:0;fill-rule:evenodd;clip-rule:evenodd;fill:#925BB6;}
	.st103{opacity:0;fill-rule:evenodd;clip-rule:evenodd;fill:#925B80;}
	.st104{opacity:0;fill-rule:evenodd;clip-rule:evenodd;fill:#A74992;}
	.st105{fill-rule:evenodd;clip-rule:evenodd;fill:#3085AA;}
	.st106{fill-rule:evenodd;clip-rule:evenodd;fill:#6464B6;}
	.st107{fill-rule:evenodd;clip-rule:evenodd;fill:#646480;}
	.st108{fill-rule:evenodd;clip-rule:evenodd;fill:#835092;}
	.st109{fill-rule:evenodd;clip-rule:evenodd;fill:#649B80;}
	.st110{fill-rule:evenodd;clip-rule:evenodd;fill:#837C92;}
	.st111{fill-rule:evenodd;clip-rule:evenodd;fill:#837C66;}
	.st112{fill-rule:evenodd;clip-rule:evenodd;fill:#986779;}
	.st113{fill-rule:evenodd;clip-rule:evenodd;fill:#1885DA;}
	.st114{opacity:0;fill-rule:evenodd;clip-rule:evenodd;fill:#5264DA;}
	.st115{fill-rule:evenodd;clip-rule:evenodd;fill:#5264A4;}
	.st116{fill-rule:evenodd;clip-rule:evenodd;fill:#7450AF;}
	.st117{fill-rule:evenodd;clip-rule:evenodd;fill:#529BA4;}
	.st118{opacity:0;fill-rule:evenodd;clip-rule:evenodd;fill:#747CAF;}
	.st119{fill-rule:evenodd;clip-rule:evenodd;fill:#747C83;}
	.st120{opacity:0;fill-rule:evenodd;clip-rule:evenodd;fill:#8C6792;}
	.st121{fill-rule:evenodd;clip-rule:evenodd;fill:#24A4A4;}
	.st122{fill-rule:evenodd;clip-rule:evenodd;fill:#5083AF;}
	.st123{fill-rule:evenodd;clip-rule:evenodd;fill:#508383;}
	.st124{fill-rule:evenodd;clip-rule:evenodd;fill:#6D6D92;}
	.st125{fill-rule:evenodd;clip-rule:evenodd;fill:#50AF83;}
	.st126{fill-rule:evenodd;clip-rule:evenodd;fill:#6D9292;}
	.st127{fill-rule:evenodd;clip-rule:evenodd;fill:#6D926D;}
	.st128{fill-rule:evenodd;clip-rule:evenodd;fill:#7B7B7B;}
</style>
<g id="g10" transform="matrix(1.3333333,0,0,-1.3333333,0,1013.3333)">
	<g id="g12">
		<g>
			<g>
				<defs>
					<polygon id="SVGID_1_" points="0,758.3 858.01,754.14 858.01,-5.86 0,-1.7 					"/>
				</defs>
				<clipPath id="SVGID_00000128487557043210640270000001720304227285576613_">
					<use xlink:href="#SVGID_1_"  style="overflow:visible;"/>
				</clipPath>
				<g id="g14" style="clip-path:url(#SVGID_00000128487557043210640270000001720304227285576613_);">
					<g id="g20" transform="translate(660.0371,592.8647)" class="st1">
						<path id="path22" class="st2" d="M25.01-5.86c1.27-5.7,0.79-12.76-2.83-19.34c7.32-9.25,13.06-18.93,17.03-28.2
							c6.03-14.08,11.41-31.1,12.46-49.47c10.16-5.53,19.6-13.24,27.05-21.43c10.65-11.71,15.76-28.18,27.71-38.38
							c3.38,9.48,4.19,23.73,2.65,34.41c-6.25,43.34-31.49,85.51-58,119c-27.6,34.87-61.46,65.21-99,78
							c-1.88-0.41-3.77-0.67-5.66-0.82c0.83-1.98,1.3-3.86,1.28-5.55C-29.16,40.66,18.79,22.11,25.01-5.86"/>
					</g>
					<g id="g24" transform="translate(407.1992,705.0093)">
						<path id="path26" class="st3" d="M25.01-5.86c5.23-2.59,10.44-7.4,13.29-14.35c12.87,0.03,25.01-1.73,35.49-4.77
							c15.16-4.41,32.3-11.35,47.51-22.8c10.97,4.48,23.27,6.9,34.62,7.37c14.49,0.61,29.08-4.92,43.34-3.82
							c-3.97,9.41-16.52,21.21-27.31,27.55C134.18,5.5,85.49,12.12,42.77,12.33C-1.7,12.55-46.54,5.06-79.98-16.28
							c-0.74-1.5-1.6-2.93-2.5-4.31c2.39-0.6,4.39-1.48,5.85-2.69C-45.21-18.87-0.68,6.84,25.01-5.86"/>
					</g>
					<g id="g28" transform="translate(538.0996,670.4604)" class="st1">
						<path id="path30" class="st4" d="M25.01-5.86C13.66-6.34,1.36-8.76-9.61-13.24c14.15-10.65,26.63-25.21,34.3-45.32
							c1.27-3.34,2.27-6.78,3.1-10.28c9.25,1.01,19.01,0.46,28.67-1.4c0.72,3.35,1.96,6.29,3.81,8.45
							c9.35,10.88,30.55,1.09,46.15-8.04c15.18-8.89,27.87-20.55,37.7-32.97c3.62,6.57,4.1,13.64,2.83,19.34
							c-6.22,27.97-54.17,46.52-77.33,68.23c0.02,1.7-0.44,3.57-1.28,5.55C54.09-10.79,39.5-5.25,25.01-5.86"/>
					</g>
					<g id="g32" transform="translate(160.0469,576.8652)">
						<path id="path34" class="st5" d="M25.01-5.86c5.32,2.5,12.38,3.58,19.65,1.43c5.36,6.08,11.01,11.39,16.69,15.78
							c14.57,11.26,33.5,22.67,55.69,27.36c2.97,13.1,9.48,26.23,17.2,36.76c8.72,11.9,22.45,19.92,30.44,32.09
							c-9.91,2.5-26.44,0.13-37.86-4.19C85.85,87.88,50.15,54.11,23.19,20.98C-4.88-13.52-27.18-53.14-31.53-92.56
							c0.88-1.91,1.6-3.87,2.18-5.86c1.61,1.09,3.2,1.85,4.73,2.17C-8.52-68.91-0.92-18.06,25.01-5.86"/>
					</g>
					<g id="g36" transform="translate(596.3154,515.8364)" class="st1">
						<path id="path38" class="st6" d="M25.01-5.86C32.32-4.92,39.98-3.14,44.07,5.6c4.91,10.48-1.52,17.89-10.09,24.94
							c-7.43,6.11-18.95,9.73-27.02,16.81c-8.43-1.69-17.93-5.31-26.6-11.38c0.91-2,1.92-3.95,3.09-5.83
							C-7.32,15.35,13.19,8.79,25.01-5.86"/>
					</g>
					<g id="g40" transform="translate(269.2725,658.1914)" class="st1">
						<path id="path42" class="st7" d="M25.01-5.86C17.29-16.4,10.78-29.52,7.81-42.63c14.54,3.07,30.48,3.27,47.54-1.38
							c5.5-1.5,10.81-3.71,16.02-6.2c0.95,1.88,2.01,3.79,3.2,5.75c5.7,9.39,13.61,17.99,22.75,25.29c-1.59,2.27-2.7,4.62-3.11,6.97
							c-2.48,14.13,18.55,24.3,35.5,30.56c15.51,5.73,31.51,8.2,46.52,8.24c-2.85,6.95-8.05,11.77-13.29,14.36
							C137.26,53.66,92.73,27.95,61.3,23.54c-1.45,1.21-3.46,2.09-5.85,2.69C47.46,14.06,33.73,6.04,25.01-5.86"/>
					</g>
					<g id="g44" transform="translate(578.2754,569.0532)" class="st1">
						<path id="path46" class="st8" d="M25.01-5.86c-0.62,0.54-1.22,1.1-1.79,1.68c-5.46,5.58-9.57,23.17-6.94,35.35
							c-9.66,1.86-19.42,2.41-28.67,1.4c3.95-16.69,4.01-34.8,10.8-49.8C7.08-11.17,16.58-7.55,25.01-5.86"/>
					</g>
					<g id="g48" transform="translate(143.6143,212.8164)">
						<path id="path50" class="st9" d="M25.01-5.86C14.1,23.94-20.37,62.08-13.34,89.86c1.45,5.75,5.15,11.95,11.52,16.19
							c-0.96,6.61-1.37,13.02-1.26,19.03c0.32,18.59,3.29,40.74,13.74,61.16C2.19,196.83-4.03,210.26-7.42,223
							c-3.69,13.84-1.54,29.07-5.5,42.63c-8.43-5.73-17.43-20.86-21.31-32.98c-13.37-41.7-9.17-90.66-0.02-132.38
							c9.53-43.44,26.66-85.55,54.8-113.5c1.04-0.25,2.06-0.55,3.06-0.88C23.49-10.82,23.91-7.97,25.01-5.86"/>
					</g>
					<g id="g52" transform="translate(637.8809,560.1851)">
						<path id="path54" class="st10" d="M25.01-5.86C34.42-24.93,34-45.7,30.36-64.58c13.59,5.57,29.24,2.13,43.46-5.61
							c-1.05,18.37-6.43,35.39-12.46,49.47c-3.97,9.27-9.71,18.95-17.03,28.2c-1.38-2.51-3.21-4.95-5.59-7.22
							C34.52-3.74,29.91-5.48,25.01-5.86"/>
					</g>
					<g id="g56" transform="translate(428.7422,606.0532)">
						<path id="path58" class="st11" d="M25.01-5.86c4.13,6.47,8.17,13.77,3.81,22.91C23.84,27.5,14.03,27.23,3.14,25.09
							c-10.1-1.99-20.97-9.43-32.37-10.5c-4.45-8.51-7.87-19.58-8.02-31.6C-17.33-16.42,2.71,0.23,25.01-5.86"/>
					</g>
					<g id="g60" transform="translate(634.6953,565.9619)">
						<path id="path62" class="st12" d="M25.01-5.86c1.17-1.91,2.23-3.83,3.19-5.78c4.9,0.38,9.51,2.12,13.73,6.13
							c2.39,2.26,4.21,4.7,5.59,7.22C37.69,14.13,25.01,25.8,9.82,34.68c-15.59,9.12-36.8,18.92-46.15,8.04
							c-1.86-2.16-3.09-5.1-3.81-8.45C-13.22,29.08,12.91,13.81,25.01-5.86"/>
					</g>
					<g id="g64" transform="translate(129.2646,404.9258)">
						<path id="path66" class="st13" d="M25.01-5.86c6.68,13.05,16.41,25.41,30.48,35.67c5.14,3.75,10.82,6.75,16.67,9.49
							c-1.22,2.55-2.36,5.3-3.4,8.28c-2.18,6.2-3.63,12.83-4.42,19.66c-5.23-0.93-10.21-0.79-13.93,1.04
							c-12.88,6.32-8.71,29.31-3.79,46.69c5.82,20.56,16.53,38.6,28.81,52.54c-7.26,2.15-14.33,1.07-19.65-1.43
							c-25.93-12.19-33.53-63.05-49.64-90.39c-1.53-0.32-3.12-1.07-4.73-2.17c3.96-13.56,1.81-28.78,5.5-42.63
							C10.32,18.15,16.54,4.72,25.01-5.86"/>
					</g>
					<g id="g68" transform="translate(615.3809,527.2964)">
						<path id="path70" class="st14" d="M25.01-5.86c-4.1-8.74-11.75-10.52-19.07-11.46c4.88-6.05,8.28-13.47,8.78-23.42
							c0.35-7.06-2.51-14.43-7.27-21.64C21.23-58,33.07-39.93,52.67-31.77c0.06,0.03,0.13,0.05,0.19,0.07
							c3.64,18.88,4.06,39.66-5.35,58.72c-14.27-1.11-30.93,9.44-47.18,10.02c-3.62,0.13-7.87-0.23-12.43-1.15
							c8.06-7.08,19.59-10.7,27.02-16.81C23.49,12.03,29.92,4.62,25.01-5.86"/>
					</g>
					<g id="g72" transform="translate(366.481,594.8921)">
						<path id="path74" class="st15" d="M25.01-5.86c0.15,12.02,3.57,23.09,8.02,31.6c-0.07,0-0.14-0.02-0.2-0.02
							C24.7,25,7.36,33.78,0.11,44.13c-9.14-7.3-17.05-15.9-22.75-25.29c-1.19-1.96-2.25-3.87-3.2-5.75
							C-10.14,5.57,4.73-4.57,21.42-5.79C22.61-5.88,23.81-5.9,25.01-5.86"/>
					</g>
					<g id="g76" transform="translate(576.4844,570.7368)">
						<path id="path78" class="st16" d="M25.01-5.86C25.58-6.45,26.19-7,26.8-7.54c4.56,0.92,8.81,1.27,12.43,1.15
							c16.25-0.57,32.91-11.12,47.18-10.02c-0.96,1.95-2.01,3.87-3.19,5.78C71.12,9.03,44.99,24.31,18.07,29.48
							C15.44,17.31,19.55-0.29,25.01-5.86"/>
					</g>
					<g id="g80" transform="translate(294.751,88.3936)">
						<path id="path82" class="st17" d="M25.01-5.86c-3.75,4.51-6.55,11.05-6.31,18.6C5.71,18.27-5.68,25.46-14.64,33.2
							c-13.03,11.26-26.95,26.22-36.07,45.14c-12.69,0.42-25.91,3.78-37.14,8.68c-14.08,6.14-25.23,18.54-39.67,23.29
							c0.36-10.18,5.83-24.56,12.04-34.18C-91.76,39.33-51.26,11.51-13.2-7.9c39.62-20.2,83.03-33.69,122.49-29.68
							c4.08,3.07,8.62,5.21,13.4,6.94C91.97-22.77,42.87-27.37,25.01-5.86"/>
					</g>
					<g id="g84" transform="translate(299.7246,127.6914)" class="st1">
						<path id="path86" class="st18" d="M25.01-5.86C2.82,10.86-5.81,37.83-10.35,60.98c-2.02-3.1-4.29-6.11-6.94-8.92
							c-9.35-9.94-23.51-13.51-38.4-13.02c9.12-18.92,23.04-33.88,36.07-45.13c8.97-7.75,20.36-14.94,33.34-20.47
							c0.09,2.84,0.6,5.81,1.68,8.88C17.36-12.13,20.74-8.44,25.01-5.86"/>
					</g>
					<g id="g88" transform="translate(418.5,666.9077)" class="st1">
						<path id="path90" class="st19" d="M25.01-5.86c22.7-5.44,39.61-21.35,52.46-37.73c0.33,1.43,0.7,2.85,1.14,4.28
							c4.3,13.85,16.63,23.6,31.38,29.63C94.78,1.77,77.65,8.7,62.48,13.11c-10.47,3.05-22.62,4.8-35.49,4.77
							c1.08-2.65,1.84-5.6,2.1-8.86C29.58,3.06,27.94-1.73,25.01-5.86"/>
					</g>
					<g id="g92" transform="translate(472.0996,633.4604)" class="st1">
						<path id="path94" class="st20" d="M25.01-5.86c-0.44-1.43-0.82-2.85-1.14-4.28c3.75-4.79,7.17-9.61,10.27-14.22
							c6.68-9.93,13.97-20.96,17.12-30.84c8.05,11.62,19.83,20.5,41.13,23.21c0.46,0.06,0.93,0.1,1.4,0.15
							c-0.83,3.5-1.83,6.95-3.1,10.28c-7.67,20.12-20.15,34.67-34.3,45.32C41.64,17.74,29.31,7.98,25.01-5.86"/>
					</g>
					<g id="g96" transform="translate(228.5923,541.6138)" class="st1">
						<path id="path98" class="st21" d="M25.01-5.86C13.63-3.74,8.07-11.82,3.39-21.88c-2.94-6.33-4.08-14.43-6.32-22.06
							c3.81-9.04,10.46-19.07,20.11-26.98C27.81-57.3,28.84-35.87,40.85-21.38C38.11-14.55,34.46-7.63,25.01-5.86"/>
					</g>
					<g id="g100" transform="translate(558.707,501.9214)" class="st1">
						<path id="path102" class="st22" d="M25.01-5.86C31.89-0.57,42.53,4.2,53.19,6.7c2.83,0.66,6.09,0.92,9.43,1.35
							C50.8,22.7,30.28,29.26,21.07,44.07c-1.17,1.88-2.19,3.83-3.09,5.83C11.73,45.51,5.91,39.86,1.26,32.73
							c-2.2-3.37-4.24-7.29-6.13-11.52C7.36,20.15,16.42,7.48,25.01-5.86"/>
					</g>
					<g id="g104" transform="translate(410.4795,668.3652)" class="st1">
						<path id="path106" class="st23" d="M25.01-5.86c2.75-0.33,5.42-0.83,8.02-1.46c2.93,4.13,4.57,8.92,4.09,14.88
							c-0.26,3.27-1.02,6.22-2.1,8.86C20,16.39,4,13.91-11.5,8.19C-28.45,1.93-49.48-8.24-47-22.37c0.41-2.34,1.52-4.69,3.11-6.97
							C-23.43-13.01,3.19-3.22,25.01-5.86"/>
					</g>
					<g id="g108" transform="translate(498.3516,584.1216)" class="st1">
						<path id="path110" class="st24" d="M25.01-5.86c0.93-2.9,1.51-5.7,1.61-8.34C27.19-30.54,15.8-54.9,7.56-76.11
							c-6.28-16.17-20.04-44.11-10.67-61.31c7.72,11.32,12.07,24.1,19.18,37.83c7.31,14.1,20.33,35.31,33.26,38.18
							c2.14,0.47,4.19,0.59,6.16,0.42c1.9,4.23,3.94,8.15,6.13,11.52c4.65,7.13,10.47,12.79,16.72,17.17
							c-6.78,15-6.85,33.11-10.8,49.8c-0.46-0.05-0.93-0.09-1.4-0.15C44.84,14.64,33.06,5.76,25.01-5.86"/>
					</g>
					<g id="g112" transform="translate(219.0288,172.5957)">
						<path id="path114" class="st25" d="M25.01-5.86C17.99,8.7,13.81,25.61,15.08,45c0.2,3.02,0.61,6.03,1.16,9.02
							C7.83,56.95-0.4,61.33-8.06,66.75c-1.98-2.62-4.24-4.7-6.73-5.87c-12.98-6.1-28.32,11.51-38.82,26.22
							c-13.29,18.63-20.82,39.82-23.63,59.18c-6.37-4.25-10.07-10.45-11.52-16.2c-7.03-27.78,27.44-65.92,38.35-95.72
							c-1.1-2.11-1.52-4.96-1.4-8.24c14.44-4.76,25.59-17.15,39.67-23.29C-0.9-2.08,12.32-5.44,25.01-5.86"/>
					</g>
					<g id="g116" transform="translate(257.4253,185.6113)">
						<path id="path118" class="st26" d="M25.01-5.86c2.65,2.81,4.92,5.82,6.94,8.92c-0.45,2.28-0.86,4.52-1.24,6.71
							c-1.98,11.47-4.06,24.14-3.11,34.3c-11.96-7.1-26.2-10.22-46.44-4.14c-1.11,0.33-2.22,0.7-3.32,1.08
							c-0.55-2.99-0.96-6-1.16-9.02c-1.27-19.39,2.91-36.3,9.93-50.87C1.5-19.37,15.66-15.8,25.01-5.86"/>
					</g>
					<g id="g120" transform="translate(432.5527,628.9585)">
						<path id="path122" class="st27" d="M25.01-5.86C29.36-15,25.33-22.3,21.2-28.77c3.87-1.06,7.81-2.8,11.83-5.43
							c8.84-5.79,14-17.75,16.8-31.5c1.36,0.63,2.61,1.4,3.73,2.34c13.54,11.28,4.52,34.4,9.86,57.72
							C50.56,10.74,33.66,26.64,10.96,32.09C2.74,20.5-15.66,14.15-26.19,1.97c-2.35-2.72-4.72-6.22-6.85-10.3
							c11.4,1.07,22.28,8.51,32.37,10.5C10.22,4.32,20.03,4.58,25.01-5.86"/>
					</g>
					<g id="g124" transform="translate(461.0996,571.4604)">
						<path id="path126" class="st28" d="M25.01-5.86c-1.12-0.93-2.37-1.71-3.73-2.34c2.99-14.69,3.27-31.42,2.4-44.85
							c-0.38-5.79-1.37-12.84-2.69-20.23c13.18,9.95,17.09,28.39,23.26,42.03C50.22-18.05,54.53-4.36,62.26,6.8
							c-3.16,9.87-10.44,20.91-17.12,30.84c-3.11,4.61-6.52,9.44-10.27,14.22C29.53,28.54,38.55,5.42,25.01-5.86"/>
					</g>
					<g id="g128" transform="translate(218.877,474.312)">
						<path id="path130" class="st29" d="M25.01-5.86c0.67,0.72,1.29,1.47,1.89,2.24c-9.66,7.9-16.31,17.94-20.12,26.98
							C5.7,19.68,4.36,16.1,2.42,12.89c-3.53-5.84-16.23-13-27.69-15.03c0.79-6.83,2.24-13.46,4.42-19.66
							c1.05-2.99,2.19-5.74,3.4-8.28C-2.27-22.98,14.06-17.66,25.01-5.86"/>
					</g>
					<g id="g132" transform="translate(588.3945,470.1074)">
						<path id="path134" class="st30" d="M25.01-5.86c3.31-0.6,6.42-0.29,9.43,0.67c4.76,7.21,7.62,14.57,7.27,21.64
							c-0.5,9.96-3.9,17.38-8.78,23.42c-3.34-0.43-6.61-0.69-9.43-1.35c-10.66-2.5-21.3-7.27-28.18-12.57
							C4.62,11.5,13.37-3.74,25.01-5.86"/>
					</g>
					<g id="g136" transform="translate(374.2974,626.4702)">
						<path id="path138" class="st31" d="M25.01-5.86c0.07,0.01,0.14,0.02,0.2,0.02c2.13,4.08,4.5,7.58,6.85,10.3
							C42.6,16.64,61,22.99,69.21,34.57c-2.6,0.62-5.27,1.12-8.02,1.46c-21.82,2.65-48.44-7.14-68.9-23.48
							C-0.46,2.2,16.88-6.57,25.01-5.86"/>
					</g>
					<g id="g140" transform="translate(457.0801,504.0498)">
						<path id="path142" class="st32" d="M25.01-5.86c-1.68-9.4-3.9-19.36-6.08-27.99c-4.35-17.19-10.17-33.07-8.9-46.79
							c9.14,3.69,17.86,10.02,25.07,19.11c1.09,1.37,2.1,2.77,3.07,4.19c-9.37,17.2,4.39,45.15,10.67,61.31
							c8.24,21.21,19.63,45.57,19.06,61.91c-0.09,2.64-0.68,5.44-1.6,8.33c-7.74-11.16-12.04-24.85-18.01-38.05
							C42.1,22.53,38.19,4.09,25.01-5.86"/>
					</g>
					<g id="g144" transform="translate(654.0488,166.71)">
						<path id="path146" class="st33" d="M25.01-5.86C-0.88-24.22-28.62-67.51-57.27-68.02c-5.86-0.11-12.72,1.79-18.46,6.69
							c-12.39-6.64-25.06-11.02-36.66-13.18c-17.69-3.29-39.13-4.81-60.51,0.68c-8.49-10.06-19.94-18.59-31.31-24.39
							c-10.09-5.15-21.8-6.91-32.4-10.74c0.77-0.2,1.53-0.39,2.27-0.61c4.33-8.73,25.42-15.53,40.55-16.39
							c43.72-2.49,90.06,13.85,128.16,33.17C-25.97-72.68,10.5-45.55,30.5-11.3c-0.03,1.89,0.09,3.75,0.31,5.6
							C28.66-6.14,26.7-6.23,25.01-5.86"/>
					</g>
					<g id="g148" transform="translate(504.9375,180.4648)" class="st1">
						<path id="path150" class="st34" d="M25.01-5.86c-0.68-7.32-0.59-15.14,7.01-21.02c9.15-7.09,17.79-2.44,26.55,4.38
							c8.17,6.36,14.56,18,24.36,24.06c0.55,0.34,1.19,0.65,1.89,0.94c0.1,8.42-1.41,18.28-5.39,27.88
							c-2.9-0.51-5.76-1.23-8.55-2.23C53.84,22.01,42.95,2.1,25.01-5.86"/>
					</g>
					<g id="g152" transform="translate(547.4307,118.1035)" class="st1">
						<path id="path154" class="st35" d="M25.01-5.86c-2.88,4.6-3.75,9.16-3.36,13.71c-27.79-8.69-55.02,1.47-76.62,13
							c0.87-3,1.56-6.11,1.97-9.33c1.69-13.06-4.05-25.8-13.28-36.74c21.39-5.49,42.83-3.96,60.51-0.68
							c11.6,2.15,24.27,6.54,36.66,13.18C28.73-10.88,26.73-8.62,25.01-5.86"/>
					</g>
					<g id="g156" transform="translate(538.5,163.8213)" class="st1">
						<path id="path158" class="st36" d="M25.01-5.86c-8.76-6.82-17.4-11.47-26.55-4.38c-7.6,5.89-7.69,13.71-7.01,21.02
							c-6.48-2.88-13.88-4.19-22.81-2.74c-10.07,1.64-19.36,9.93-27.32,20.79c-0.45-0.67-0.86-1.36-1.21-2.09
							c-7.07-14.76,7.79-30.68,13.85-51.62c21.61-11.54,48.83-21.69,76.62-13C31.81-23.35,46.01-8.84,49.9,7.33
							c0.81,3.37,1.3,7.39,1.35,11.81c-0.7-0.29-1.33-0.6-1.89-0.94C39.57,12.13,33.18,0.49,25.01-5.86"/>
					</g>
					<g id="g160" transform="translate(196.6162,562.937)">
						<path id="path162" class="st37" d="M25.01-5.86C42.93,9.35,65.53,13.24,86.4,13.26c-0.35,0.49-0.71,0.98-1.05,1.48
							c-7.22,10.67-7.96,24.27-4.88,37.89c-22.2-4.69-41.12-16.1-55.69-27.36c-5.68-4.39-11.34-9.7-16.69-15.78
							c2.7-0.8,5.43-2.04,8.11-3.83C20.84,2.54,23.53-1.39,25.01-5.86"/>
					</g>
					<g id="g164" transform="translate(527.2842,244.4805)" class="st1">
						<path id="path166" class="st38" d="M25.01-5.86C24.37-19.28,12.16-25.91-2.24-31c3.41-7.83,5.56-18.78,5.66-29.29
							c0.03-2.93-0.45-6.2-0.76-9.58c17.94,7.96,28.83,27.87,45.86,34c2.79,1,5.65,1.72,8.55,2.23
							c-3.06,7.37-7.56,14.58-13.93,20.86C38.04-7.75,31.17-2.87,23.75,1.7C24.65-0.93,25.12-3.48,25.01-5.86"/>
					</g>
					<g id="g168" transform="translate(256.9556,583.5371)">
						<path id="path170" class="st39" d="M25.01-5.86c0.34-0.5,0.69-0.99,1.05-1.48c7.55,0.01,14.88-0.49,21.67-1.14
							c10.41-0.99,21.77-2.17,30.91-5C75.85-2.21,76.38,9.99,83.7,24.45c-5.22,2.5-10.52,4.71-16.02,6.2
							c-17.06,4.64-33,4.45-47.54,1.38C17.04,18.41,17.78,4.8,25.01-5.86"/>
					</g>
					<g id="g172" transform="translate(454.8066,198.5176)" class="st1">
						<path id="path174" class="st40" d="M25.01-5.86c7.96-10.86,17.25-19.15,27.32-20.79c8.94-1.45,16.33-0.14,22.81,2.74
							c0.31,3.38,0.78,6.66,0.76,9.58c-0.1,10.51-2.25,21.46-5.66,29.29C52.87,8.82,32.31,4.93,25.01-5.86"/>
					</g>
					<g id="g176" transform="translate(176.6001,336.127)">
						<path id="path178" class="st41" d="M25.01-5.86c-8.77-7.55-5.94-16.94-1-26.89c2.59-5.21,6.91-10.2,10.92-15.49
							c9.47-3.02,21.78-4.47,34.4-2.03c-2.7,16.19-17.07,30.05-22.11,47.03C40.12-1.09,32.36,0.47,25.01-5.86"/>
					</g>
					<g id="g180" transform="translate(237.4312,335.7998)">
						<path id="path182" class="st42" d="M25.01-5.86C16.69-7.59,5.64-7.49-4.58-5.51c-2.82,0.55-5.86,1.63-9.04,2.6
							C-8.58-19.9,5.79-33.76,8.49-49.95c6.58,1.27,13.23,3.59,19.61,7.29c3.78,2.19,7.67,5.05,11.58,8.28
							C30.28-29.71,26.82-18.57,25.01-5.86"/>
					</g>
					<g id="g184" transform="translate(416.2021,569.2314)">
						<path id="path186" class="st43" d="M25.01-5.86c0.31,8.66,3.36,19.82,8.16,29.58c1.15,2.33,2.77,4.72,4.38,7.24
							C15.25,37.05-4.79,20.41-24.71,19.8c-0.08-6.52,0.8-13.32,3.02-20.13c1.43-4.4,3.56-9.08,6.08-13.85
							C-7.8-3.04,8.37-3.85,25.01-5.86"/>
					</g>
					<g id="g188" transform="translate(429.3223,498.2046)">
						<path id="path190" class="st44" d="M25.01-5.86c-0.2,20.75-13.64,47.8-13.15,70.46c0,0.19,0.02,0.38,0.02,0.57
							c-16.64,2.01-32.8,2.82-40.62-8.32c6.61-12.51,16.03-25.64,23.4-35.95C1.85,10.83,11.29-2.25,25.01-5.86"/>
					</g>
					<g id="g192" transform="translate(193.4937,560.1445)">
						<path id="path194" class="st45" d="M25.01-5.86c1.02,0.98,2.07,1.9,3.12,2.79c-1.48,4.47-4.17,8.41-8.82,11.52
							c-2.68,1.8-5.41,3.03-8.11,3.83C-1.07-1.65-11.78-19.69-17.6-40.25c-4.92-17.38-9.09-40.37,3.79-46.69
							c3.72-1.82,8.69-1.96,13.93-1.04C-3.36-57.82,6.26-23.77,25.01-5.86"/>
					</g>
					<g id="g196" transform="translate(283.0293,338.2773)">
						<path id="path198" class="st46" d="M25.01-5.86c6.98,7.65,15.68,17.29,18.72,28.53C24.23,16.36,2.38-2.66-18.94-7.97
							c-0.54-0.13-1.09-0.26-1.65-0.38c1.81-12.7,5.27-23.85,14.67-28.51C5.15-27.7,16.29-15.42,25.01-5.86"/>
					</g>
					<g id="g200" transform="translate(310.5752,575.9224)">
						<path id="path202" class="st47" d="M25.01-5.86c4.38-1.36,8.25-3.1,11.25-5.39C49.24-21.18,60.84-45.44,72-65.27
							c8.62-15.31,21.7-44.22,41.36-47.29c-3.72,13.3-10.81,24.89-16.83,39.24c-6.14,14.65-14.08,38.24-8,50
							c0.45,0.88,0.95,1.69,1.49,2.45c-2.52,4.77-4.65,9.45-6.08,13.85c-2.22,6.81-3.1,13.61-3.02,20.13
							c-1.2-0.04-2.39-0.02-3.59,0.07c-16.7,1.22-31.56,11.36-47.26,18.88C22.75,17.6,22.22,5.4,25.01-5.86"/>
					</g>
					<g id="g204" transform="translate(415.1367,472.4888)">
						<path id="path206" class="st48" d="M25.01-5.86C35.84,0.01,39.3,9.08,39.19,19.85C25.48,23.47,16.04,36.54,8.85,46.61
							C1.49,56.92-7.93,70.06-14.54,82.56c-0.53-0.76-1.03-1.58-1.49-2.45c-6.09-11.77,1.86-35.35,8-50
							C-2.01,15.75,5.08,4.16,8.8-9.13C13.77-9.91,19.16-9.03,25.01-5.86"/>
					</g>
					<g id="g208" transform="translate(456.1406,98.7441)">
						<path id="path210" class="st49" d="M25.01-5.86c-14.85,3.81-29.67,11-43.19,23.34c-2.25,2.06-4.36,4.27-6.38,6.6
							c-8.97-5.64-19.38-9.79-30.27-12.39c0.37-2.44,0.34-4.76-0.2-6.84c-3.63-13.88-26.99-14.37-45-13
							c-15.26,1.16-29.75,5.03-42.66,10.53c-0.25-7.54,2.56-14.09,6.31-18.6c17.86-21.5,66.96-16.9,97.68-24.78
							c10.6,3.83,22.31,5.59,32.4,10.74C5.07-24.45,16.51-15.93,25.01-5.86"/>
					</g>
					<g id="g212" transform="translate(305.8208,123.5566)" class="st1">
						<path id="path214" class="st50" d="M25.01-5.86c-2.14,1.29-4.17,2.68-6.1,4.14c-4.27-2.58-7.65-6.26-9.6-11.83
							c-1.08-3.07-1.59-6.04-1.68-8.88c12.91-5.5,27.4-9.37,42.66-10.53c18.01-1.37,41.37-0.88,45,13c0.54,2.08,0.57,4.4,0.2,6.84
							C70.66-19.05,43.35-16.91,25.01-5.86"/>
					</g>
					<g id="g216" transform="translate(469.4229,135.4795)">
						<path id="path218" class="st51" d="M25.01-5.86c-0.42,3.22-1.1,6.33-1.97,9.33c-2.89,1.54-5.68,3.1-8.35,4.65
							C6.24,13.01-2.9,18.38-9.88,24.26C-12.44,11.88-19.22,0.1-35.02-10.8c-0.92-0.64-1.87-1.26-2.83-1.86
							c2.01-2.32,4.12-4.54,6.38-6.6C-17.95-31.6-3.12-38.79,11.73-42.6C20.96-31.67,26.69-18.92,25.01-5.86"/>
					</g>
					<g id="g220" transform="translate(453.6016,196.4287)">
						<path id="path222" class="st52" d="M25.01-5.86c0.35,0.73,0.75,1.42,1.2,2.09C17.13,8.63,9.77,24.37,4.97,37.39
							c-0.68,1.85-1.36,3.87-2.02,6C2.09,32.1,4.66,20.19,5.2,9.83C6.04-6.24,9-21.9,5.94-36.68c6.97-5.88,16.12-11.26,24.56-16.15
							c2.67-1.55,5.47-3.11,8.35-4.65C32.8-36.55,17.94-20.62,25.01-5.86"/>
					</g>
					<g id="g224" transform="translate(228.5923,541.6138)" class="st1">
						<path id="path226" class="st53" d="M25.01-5.86c9.46-1.77,13.1-8.69,15.85-15.51c4.39,5.29,10.23,9.67,18.56,12.39
							c10.02,3.28,22.57-0.15,35.03-6.54c0.34,1.42,0.51,2.85,0.48,4.28C94.56,7.02,69.13,14.3,54.42,34.59
							c-20.87-0.02-43.47-3.91-61.39-19.12C-2.42,1.73-9.28-17.11-6.24-33.3c0.6-3.22,1.7-6.84,3.3-10.64
							c2.25,7.63,3.38,15.73,6.32,22.06C8.07-11.82,13.63-3.74,25.01-5.86"/>
					</g>
					<g id="g228" transform="translate(455.9277,277.7969)">
						<path id="path230" class="st54" d="M25.01-5.86C34.48-24.35,58.74-42.49,68.52-63c0.2-0.43,0.4-0.87,0.6-1.32
							c14.4,5.09,26.61,11.73,27.25,25.14c0.11,2.38-0.36,4.93-1.25,7.57c-9.9,6.1-20.76,11.64-29.67,16.21
							C54.12-9.61,39.21-2.07,25.01-5.86"/>
					</g>
					<g id="g232" transform="translate(298.5112,536.228)" class="st1">
						<path id="path234" class="st55" d="M25.01-5.86c0.03-1.43-0.14-2.85-0.48-4.28c13.36-6.85,26.62-17.11,36.57-26.19
							c4.19-3.83,8.96-8.86,13.79-14.36C75-34.42,63.21-20.07,56.46-6.91C49.35,6.95,40.58,19.65,37.07,33.83
							c-9.13,2.83-20.49,4.01-30.91,5c-6.79,0.65-14.11,1.14-21.67,1.13C-0.79,19.67,24.64,12.4,25.01-5.86"/>
					</g>
					<g id="g236" transform="translate(454.8066,198.5176)">
						<path id="path238" class="st56" d="M25.01-5.86c7.31,10.8,27.86,14.68,45.23,20.82c-0.19,0.45-0.39,0.89-0.6,1.32
							C59.86,36.79,35.6,54.93,26.13,73.42c-4.03-1.08-7.99-3.06-11.81-6.25C5.57,59.83,2.45,50.78,1.74,41.3
							c0.67-2.13,1.34-4.16,2.02-6C8.57,22.28,15.92,6.54,25.01-5.86"/>
					</g>
					<g id="g240" transform="translate(221.1001,290.4609)">
						<path id="path242" class="st57" d="M25.01-5.86c-0.05,0.42-0.12,0.84-0.19,1.25C12.21-7.04-0.11-5.6-9.58-2.58
							c3.12-4.13,6.05-8.44,7.8-13.17c2.73-7.39-0.82-25.39-8.35-35.37c7.66-5.41,15.88-9.8,24.3-12.73
							C17.75-44.22,27.46-25.05,25.01-5.86"/>
					</g>
					<g id="g244" transform="translate(260.0215,235.5391)">
						<path id="path246" class="st58" d="M25.01-5.86c0.32,3.35,0.96,6.43,2.05,9.11c6.17,15.14,26.53,32.71,42.73,48.69
							c13.39,13.21,40.48,35.46,33.88,56.51c-12.6-6.52-22.54-16.19-35.56-25.39c-12.97-9.17-34.28-22.03-47.08-18.64
							c-1.42,0.38-2.72,0.87-3.93,1.47c-3.91-3.23-7.8-6.08-11.58-8.28c-6.38-3.71-13.03-6.02-19.61-7.29
							c0.07-0.42,0.13-0.83,0.19-1.25c2.45-19.19-7.25-38.36-10.85-57.98c1.1-0.38,2.21-0.75,3.32-1.08
							C-1.19-16.09,13.05-12.97,25.01-5.86"/>
					</g>
					<g id="g248" transform="translate(457.3682,569.1226)">
						<path id="path250" class="st59" d="M25.01-5.86c-2.8,13.75-7.96,25.71-16.8,31.5c-4.02,2.63-7.96,4.37-11.83,5.43
							c-1.61-2.52-3.23-4.92-4.38-7.24c-4.8-9.76-7.86-20.92-8.16-29.58C-0.74-7.62,15.07-10.5,25.01-5.86"/>
					</g>
					<g id="g252" transform="translate(457.3682,569.1226)">
						<path id="path254" class="st60" d="M25.01-5.86C15.07-10.5-0.74-7.62-16.16-5.75c-0.01-0.19-0.02-0.39-0.02-0.57
							c-0.5-22.66,12.94-49.71,13.14-70.46c4.39-1.16,9.22-1.36,14.55-0.16c5.27,1.18,9.58,3.27,13.21,6.01
							c1.32,7.39,2.31,14.43,2.69,20.23C28.28-37.29,28-20.56,25.01-5.86"/>
					</g>
					<g id="g256" transform="translate(196.2896,493.0703)">
						<path id="path258" class="st61" d="M25.01-5.86c1.94,3.21,3.28,6.78,4.36,10.46c-1.6,3.8-2.7,7.43-3.3,10.64
							C23.02,31.43,29.88,50.28,25.34,64c-1.06-0.9-2.1-1.82-3.12-2.79C3.47,43.3-6.15,9.25-2.68-20.9
							C8.78-18.87,21.48-11.71,25.01-5.86"/>
					</g>
					<g id="g260" transform="translate(301.7505,366.8105)">
						<path id="path262" class="st62" d="M25.01-5.86C21.97-17.11,13.26-26.75,6.29-34.4c-8.72-9.56-19.86-21.83-30.93-30.99
							c1.21-0.6,2.51-1.09,3.93-1.47c12.8-3.39,34.11,9.47,47.08,18.64c13.02,9.2,22.97,18.87,35.56,25.39
							c-1.12,3.59-3.22,7.14-6.53,10.6C46.38-2.79,36.08-2.28,25.01-5.86"/>
					</g>
					<g id="g264" transform="translate(348.3843,491.4048)">
						<path id="path266" class="st63" d="M25.01-5.86c6.4-7.29,12.91-15.39,18.38-22.62c10.92-14.43,19.81-29.2,31.67-36.65
							c3.26,9.58,4.1,20.63,1.67,32.33c-0.34,1.62-0.74,3.2-1.17,4.76C55.9-24.98,42.81,3.94,34.2,19.25
							C23.03,39.08,11.43,63.33-1.55,73.27c-3,2.29-6.87,4.03-11.25,5.39C-9.29,64.48-0.52,51.78,6.59,37.91
							C13.34,24.75,25.13,10.4,25.01-5.86"/>
					</g>
					<g id="g268" transform="translate(398.4331,432.1353)">
						<path id="path270" class="st64" d="M25.01-5.86c0.17-0.1,0.33-0.22,0.49-0.33c12.43-7.55,28.36-8.52,43.17-2.55
							c-1.27,13.73,4.55,29.6,8.9,46.79c2.19,8.64,4.4,18.59,6.08,27.99c-3.62-2.73-7.94-4.83-13.21-6.01
							c-5.34-1.19-10.16-0.99-14.55,0.16c0.11-10.75-3.35-19.83-14.18-25.7c-5.85-3.17-11.24-4.05-16.21-3.27
							c0.44-1.56,0.84-3.14,1.17-4.76C29.11,14.76,28.26,3.71,25.01-5.86"/>
					</g>
					<g id="g272" transform="translate(742.834,434.8857)">
						<path id="path274" class="st65" d="M25.01-5.86c-0.48,0.37-0.93,0.77-1.38,1.16c-1.36-3.82-3.14-6.87-5.35-8.59
							c-2.5-31.64,12.96-80.68-5-103c-3.66-4.54-9.47-8.58-16.86-9.86c-2.69-11.79-6.77-22.58-11.66-31.65
							c-7.18-13.32-16.99-27.92-30.46-40.08c1.97-11.29,1.84-23.34,0.11-34.16c-2.29-14.36-10.65-27.59-12.38-41.83
							c10,2.06,24,11.97,32.33,21.25c29.27,32.57,45.47,78.96,54.2,120.78C37.64-88.32,39.25-42.88,25.01-5.86"/>
					</g>
					<g id="g276" transform="translate(713.7402,474.4272)" class="st1">
						<path id="path278" class="st66" d="M25.01-5.86C17.56,2.33,8.12,10.04-2.04,15.56C-1-2.62-4.2-22.12-15.22-41.41
							c-2-3.5-4.33-6.82-6.84-10.03c0.1-0.09,0.19-0.18,0.28-0.27C-14.41-58.8-8.13-67.63-3.16-77.3c2.87,1.34,5.72,2.09,8.38,1.99
							c14.34-0.54,19.87-23.24,22.43-41.12c2.46-17.12,1.32-34.03-2.15-49.26c7.39,1.28,13.21,5.32,16.86,9.86
							c17.96,22.32,2.5,71.36,5,103c2.21,1.72,3.99,4.77,5.35,8.59C40.77-34.04,35.65-17.57,25.01-5.86"/>
					</g>
					<g id="g280" transform="translate(631.0488,325.5195)" class="st1">
						<path id="path282" class="st67" d="M25.01-5.86c5.28-5.12,11.42-9.96,20.78-7.73C57.05-10.92,58.85-1.27,59.03,9.83
							c0.17,9.8-4.35,21.33-3.62,32.23c-6.85,5.75-16.05,11.11-26.72,14.02c-0.5-1.16-0.96-2.34-1.37-3.55
							C21.38,34.99,30.74,13.48,25.01-5.86"/>
					</g>
					<g id="g284" transform="translate(661.4512,373.4434)" class="st1">
						<path id="path286" class="st68" d="M25.01-5.86c0.04,0.61,0.09,1.22,0.16,1.82c0.98,7.89,12.6,22.43,23.96,27.72
							c-4.97,9.67-11.25,18.5-18.62,25.59c-0.1,0.09-0.19,0.18-0.28,0.27C19.34,35.61,4.98,23.75-1.71,8.16
							C8.96,5.24,18.16-0.11,25.01-5.86"/>
					</g>
					<g id="g288" transform="translate(705.0996,314.4609)">
						<path id="path290" class="st69" d="M25.01-5.86c-5.86,0.81-10.15,3.4-13.53,7.08C2.3-17.92-14.29-30.5-31.33-39.4
							c0.11-0.06,0.22-0.12,0.34-0.18c13.05-7.15,20.2-21.73,23.02-37.88C5.49-65.3,15.3-50.7,22.48-37.38
							c4.89,9.08,8.98,19.86,11.66,31.65C31.32-6.22,28.27-6.31,25.01-5.86"/>
					</g>
					<g id="g292" transform="translate(716.3867,363.8545)">
						<path id="path294" class="st70" d="M25.01-5.86c-2.57,17.88-8.1,40.58-22.43,41.12c-2.66,0.1-5.51-0.65-8.38-1.99
							C6.49,9.31,10.68-19.9,3.09-41.25c-0.85-2.4-1.83-4.71-2.9-6.93c3.38-3.68,7.67-6.28,13.53-7.08
							c3.26-0.45,6.31-0.35,9.14,0.14C26.33-39.9,27.46-22.99,25.01-5.86"/>
					</g>
					<g id="g296" transform="translate(661.4512,373.4434)" class="st1">
						<path id="path298" class="st71" d="M25.01-5.86c-0.73-10.9,3.78-22.43,3.62-32.23c-0.19-11.1-1.99-20.75-13.24-23.42
							c-9.36-2.23-15.5,2.61-20.78,7.73C-7.28-60.16-10.81-66.31-17.07-72c-5.96-5.42-14.86-7.87-24.96-8.4
							c11.26-10.32,34.42-7.22,54.36-17.98c17.04,8.91,33.63,21.49,42.81,40.63C45.5-47.26,43.3-27.82,33.66-14.85
							C31.5-11.94,28.57-8.85,25.01-5.86"/>
					</g>
					<g id="g300" transform="translate(661.6162,375.2676)">
						<path id="path302" class="st72" d="M25.01-5.86c-0.08-0.61-0.12-1.21-0.17-1.82c3.56-2.99,6.49-6.08,8.65-8.98
							c9.65-12.97,11.84-32.42,21.47-42.92c1.07,2.22,2.04,4.52,2.9,6.93c7.58,21.35,3.4,50.56-8.9,74.51
							C37.61,16.56,25.99,2.02,25.01-5.86"/>
					</g>
					<g id="g304" transform="translate(143.3013,325.9961)">
						<path id="path306" class="st73" d="M25.01-5.86c2.86,23.55,16.86,43.68,30.3,59.45c-3.9-0.4-7.91-0.53-12.01-0.19
							c-12.72,1.06-23.7,8.88-32.33,19.67C0.52,52.64-2.45,30.5-2.77,11.91C-2.88,5.89-2.47-0.51-1.51-7.12
							c2.3,1.53,4.93,2.82,7.95,3.73C13.49-1.28,19.48-2.67,25.01-5.86"/>
					</g>
					<g id="g308" transform="translate(643.2305,501.4614)">
						<path id="path310" class="st74" d="M25.01-5.86c-1.65-8.54-3.95-16.69-6.3-24.12C15.29-40.79,11.43-52.65,6.13-61.2
							c13.6,0.71,27.42-3.07,42.32-17.29c2.51,3.21,4.84,6.53,6.84,10.03c11.02,19.29,14.22,38.8,13.18,56.98
							C54.25-3.74,38.6-0.3,25.01-5.86"/>
					</g>
					<g id="g312" transform="translate(596.627,346.3633)">
						<path id="path314" class="st75" d="M25.01-5.86c8.44-2.08,18.82-7.44,27.44-14.25c2.3-1.81,4.55-4.23,6.98-6.6
							c5.73,19.35-3.63,40.85,2.31,58.39c0.41,1.21,0.87,2.39,1.37,3.55c-7,1.91-14.62,2.78-22.63,2c-3.99-0.39-8.3-1.24-12.77-2.39
							C34.53,24.51,30.13,9.32,25.01-5.86"/>
					</g>
					<g id="g316" transform="translate(624.3496,446.1299)">
						<path id="path318" class="st76" d="M25.01-5.86c-1.93-3.12-4.05-5.81-6.42-7.82C6.16-24.3-19.99-30.55-41.72-37.31
							c-16.48-5.12-46.69-11.7-54.51-29.53c13.62,1.06,26.29,5.64,41.4,8.66c15.58,3.1,40.27,6.2,50.59-2.11
							c1.74-1.4,3.13-2.95,4.24-4.63c4.47,1.15,8.78,2,12.77,2.39c8.01,0.78,15.63-0.09,22.63-2c6.69,15.59,21.06,27.45,31.94,41.38
							C52.43-8.94,38.61-5.16,25.01-5.86"/>
					</g>
					<g id="g320" transform="translate(161.5957,385.2578)">
						<path id="path322" class="st77" d="M25.01-5.86c4.1-0.34,8.1-0.21,12.01,0.19c1.26,1.48,2.52,2.92,3.76,4.33
							C51.04,10.23,62.84,23.29,74,26.6c1.93,0.57,4.02,1,6.24,1.3c-16.26,3.99-30.83,11.04-40.41,31.07
							c-5.85-2.74-11.54-5.75-16.68-9.49C9.09,39.21-0.64,26.86-7.32,13.8C1.31,3.01,12.29-4.81,25.01-5.86"/>
					</g>
					<g id="g324" transform="translate(597.8271,470.7769)">
						<path id="path326" class="st78" d="M25.01-5.86C15.06-20.92-3.24-35.28-18.11-44.71c-2.53-1.6-5.44-3.27-8.57-4.96
							c12.44,0.68,24.91,6.36,36.02,9.23c14.47,3.74,28.22,9.2,42.2,9.93c5.3,8.55,9.16,20.4,12.58,31.22
							c2.35,7.43,4.65,15.58,6.3,24.12c-0.06-0.03-0.12-0.05-0.19-0.07C50.62,16.59,38.79-1.48,25.01-5.86"/>
					</g>
					<g id="g328" transform="translate(596.627,346.3633)">
						<path id="path330" class="st79" d="M25.01-5.86c-5.43-16.11-11.65-32.21-6.1-42.51c1.05-1.94,2.36-3.57,3.88-4.96
							c10.1,0.53,19,2.98,24.96,8.4c6.26,5.69,9.79,11.84,11.68,18.22c-2.44,2.36-4.69,4.78-6.98,6.6
							C43.83-13.31,33.45-7.94,25.01-5.86"/>
					</g>
					<g id="g332" transform="translate(546.1328,426.9668)">
						<path id="path334" class="st80" d="M25.01-5.86C14.33-11.62,0.86-17.63-10.55-22.22c-15.65-6.29-31.13-10.8-41.51-19.06
							c8.22-4.22,17.95-6.68,28.73-6.63c1.79,0.01,3.55,0.1,5.3,0.23c7.82,17.83,38.04,24.41,54.51,29.53
							C58.22-11.39,84.37-5.14,96.81,5.48c2.36,2.02,4.48,4.71,6.42,7.82c-13.98-0.73-27.73-6.19-42.2-9.93
							C49.92,0.5,37.44-5.18,25.01-5.86"/>
					</g>
					<g id="g336" transform="translate(312.144,188.0693)" class="st1">
						<path id="path338" class="st81" d="M25.01-5.86c-6.14-4.04-12.19-8.99-12.04-18.61c0.18-11.57,9.2-15.42,20-18
							c10.07-2.41,23.15-0.13,34-4c0.64-0.23,1.32-0.55,2.01-0.95c6.72,5.24,13.57,12.7,18.6,21.97c-2.07,1.77-4.26,3.39-6.6,4.82
							C65.31-11.09,42.56-15.33,25.01-5.86"/>
					</g>
					<g id="g340" transform="translate(320.1001,151.4609)" class="st1">
						<path id="path342" class="st82" d="M25.01-5.86c-10.8,2.58-19.82,6.43-20,18c-0.15,9.61,5.91,14.57,12.04,18.61
							c-6.02,3.24-11.42,8.09-15.73,15.66c-4.86,8.55-4.44,20.42-1.3,32.92c-0.21-0.04-0.42-0.08-0.63-0.13
							c-15.45-3.8-18.61-24.33-30.12-41.99c4.55-23.15,13.17-50.11,35.36-66.84c12.2,7.37,31.72,5.65,46.36,12.53
							c3.13,1.47,6.56,3.59,10.03,6.3c-0.7,0.39-1.37,0.72-2.01,0.95C48.16-6,35.08-8.27,25.01-5.86"/>
					</g>
					<g id="g344" transform="translate(378.3823,210.0752)" class="st1">
						<path id="path346" class="st83" d="M25.01-5.86C13.67-14.3-0.01-8.07-13.79,0.51c-3.95-7.62-11.24-16.26-19.49-22.99
							c-2.27-1.85-5.12-3.52-7.96-5.39c17.56-9.47,40.3-5.22,55.97-14.77c2.34-1.43,4.53-3.05,6.6-4.82
							c3.75,6.92,6.5,14.84,7.41,23.6c0.66,6.31,0.35,13.64-0.47,21.24C27.28-3.88,26.19-4.98,25.01-5.86"/>
					</g>
					<g id="g348" transform="translate(295.1177,236.6504)" class="st1">
						<path id="path350" class="st84" d="M25.01-5.86c-3.14-12.5-3.56-24.36,1.3-32.92c4.3-7.57,9.71-12.42,15.73-15.66
							c2.83,1.87,5.69,3.54,7.96,5.39c8.25,6.73,15.54,15.37,19.49,22.99C53.67-16.22,37.72-3.29,25.01-5.86"/>
					</g>
					<g id="g352" transform="translate(266.4077,493.8726)" class="st1">
						<path id="path354" class="st85" d="M25.01-5.86C18.44-0.45,11.59,8.26,6.74,17.5c-1.36,2.59-2.43,5.71-3.7,8.86
							C-8.98,11.87-10-9.55-20.64-23.18c5.08-4.17,10.99-7.74,17.76-10.27c4.43-1.65,9.54-2.92,14.98-3.92
							C8.56-26.31,15.55-15.91,25.01-5.86"/>
					</g>
					<g id="g356" transform="translate(512.4336,446.9297)" class="st1">
						<path id="path358" class="st86" d="M25.01-5.86C40.84,7.51,53.2,34.94,70.97,48.89c0.1,0.08,0.21,0.16,0.32,0.24
							C62.69,62.47,53.63,75.14,41.4,76.2c-6-13.36-10.57-29.88-14.15-42.68C24,21.93,19.88,6.88,25.01-5.86"/>
					</g>
					<g id="g360" transform="translate(331.2861,462.728)" class="st1">
						<path id="path362" class="st87" d="M25.01-5.86C7.96,5.66-20.96,10.81-38.6,24.27c-0.42,0.32-0.85,0.66-1.27,1.01
							C-49.33,15.23-56.31,4.84-52.78-6.23c13.83-2.55,29.8-3.35,42.35-4C0.4-10.79,14.13-11.44,25.01-5.86"/>
					</g>
					<g id="g364" transform="translate(483.4082,441.4502)" class="st1">
						<path id="path366" class="st88" d="M25.01-5.86c11.48-4.67,20.73-1.53,29.03,5.48C48.91,12.35,53.03,27.41,56.27,39
							c3.58,12.81,8.16,29.33,14.15,42.68c-1.97,0.17-4.01,0.05-6.16-0.42C51.33,78.39,38.31,57.18,31,43.08
							C23.89,29.35,19.55,16.57,11.83,5.25C14.35,0.62,18.54-3.23,25.01-5.86"/>
					</g>
					<g id="g368" transform="translate(143.3931,307.8926)">
						<path id="path370" class="st89" d="M25.01-5.86c-0.83,6.23-0.8,12.27-0.09,18.1c-5.53,3.2-11.52,4.59-18.57,2.47
							c-3.02-0.91-5.65-2.2-7.95-3.73C1.21-8.39,8.74-29.58,22.03-48.2c10.49-14.71,25.83-32.32,38.82-26.22
							c2.49,1.17,4.74,3.25,6.73,5.87C45.39-52.86,28.04-28.53,25.01-5.86"/>
					</g>
					<g id="g372" transform="translate(294.4849,236.5195)">
						<path id="path374" class="st90" d="M25.01-5.86c0.21,0.05,0.42,0.09,0.63,0.13c3.84,15.27,11.74,31.48,19.08,43.77
							c1.18,1.98,2.55,4.09,4.04,6.29c-9.78-6.39-17.72-16.25-25.73-23.37c-11-9.8-20.62-20.76-32.48-27.8
							c-0.96-10.16,1.12-22.83,3.1-34.3c0.38-2.19,0.79-4.43,1.24-6.71C6.4-30.2,9.56-9.66,25.01-5.86"/>
					</g>
					<g id="g376" transform="translate(357.5596,287.1348)">
						<path id="path378" class="st91" d="M25.01-5.86C16.48-24.8,17.46-55.09,7.55-75.54c-0.16-0.33-0.34-0.67-0.51-1.01
							c13.78-8.58,27.46-14.82,38.8-6.38c1.18,0.88,2.27,1.98,3.28,3.25c-1.34,12.44-4.06,25.6-6.23,36.25
							C40.33-30.95,36.89-14.57,25.01-5.86"/>
					</g>
					<g id="g380" transform="translate(295.1177,236.6504)">
						<path id="path382" class="st92" d="M25.01-5.86c12.71,2.58,28.66-10.35,44.47-20.2c0.17,0.34,0.35,0.68,0.51,1.01
							C79.9-4.6,78.92,25.69,87.45,44.62c-3.35,2.45-7.36,4.29-12.21,5.27c-10.75,2.16-19.48-0.71-27.11-5.7
							c-1.49-2.2-2.86-4.31-4.04-6.29C36.74,25.62,28.84,9.41,25.01-5.86"/>
					</g>
					<g id="g384" transform="translate(216.8301,419.0195)">
						<path id="path386" class="st93" d="M25.01-5.86c15.87,2.17,38.64-1.9,58.47-4.23c18.61-2.19,52.7-9.38,65.14,8.65
							c-12.97,5.71-26.73,7.39-42.05,11.75C91.28,14.65,67.9,23.18,62.51,35.28c-0.33,0.74-0.6,1.47-0.83,2.21
							c-5.44,1.01-10.55,2.27-14.98,3.92c-6.77,2.52-12.68,6.1-17.76,10.27c-0.6-0.77-1.22-1.52-1.89-2.24
							C16.11,37.64-0.22,32.31-15.4,25.2C-5.82,5.17,8.75-1.87,25.01-5.86"/>
					</g>
					<g id="g388" transform="translate(597.8271,470.7769)">
						<path id="path390" class="st94" d="M25.01-5.86c-3.02-0.96-6.13-1.27-9.43-0.67C3.94-4.41-4.81,10.83-14.11,25.28
							c-0.1-0.08-0.22-0.16-0.32-0.24C-32.2,11.09-44.55-16.34-60.38-29.71c1.82-4.53,4.81-8.78,9.43-12.46
							c7.8-6.22,16.02-7.95,24.26-7.5c3.14,1.69,6.05,3.36,8.57,4.96C-3.24-35.28,15.06-20.92,25.01-5.86"/>
					</g>
					<g id="g392" transform="translate(331.2861,462.728)">
						<path id="path394" class="st95" d="M25.01-5.86c-10.88-5.57-24.61-4.93-35.44-4.37c-12.55,0.65-28.52,1.45-42.35,4
							c0.24-0.73,0.5-1.47,0.83-2.21c5.39-12.1,28.77-20.63,44.05-24.98c15.32-4.36,29.08-6.04,42.05-11.75
							c2.18,3.15,3.7,7.08,4.35,11.94C40.2-20.51,34.41-12.22,25.01-5.86"/>
					</g>
					<g id="g396" transform="translate(442.0938,429.2651)">
						<path id="path398" class="st96" d="M25.01-5.86c0.04-0.48,0.07-0.96,0.14-1.43c1.96-15.05,11.89-28.6,26.84-36.28
							c10.38,8.26,25.85,12.77,41.5,19.06c11.41,4.58,24.88,10.6,35.56,16.35c-8.24-0.45-16.47,1.28-24.26,7.5
							c-4.63,3.69-7.61,7.93-9.44,12.46c-8.3-7-17.54-10.15-29.03-5.48c-6.47,2.63-10.66,6.49-13.18,11.11
							c-0.97-1.42-1.98-2.82-3.07-4.18C42.87,4.16,34.15-2.17,25.01-5.86"/>
					</g>
					<g id="g400" transform="translate(672.1191,242.8613)" class="st1">
						<path id="path402" class="st97" d="M25.01-5.86C11.35-18.21-6.06-28.05-28.3-31.47c-3.86-0.6-7.78-0.84-11.72-0.89
							c-0.92-9.87-3.74-19.95-7.97-29.59c2.99-1.42,5.5-3.22,7.15-5.45c8.57-11.5-5.63-30.05-17.95-43.27
							c-10.48-11.24-22.6-20.17-35.01-26.82c5.74-4.9,12.6-6.8,18.46-6.69c28.65,0.51,56.39,43.8,82.28,62.16
							c1.68-0.37,3.66-0.28,5.81,0.16c1.72,14.24,10.09,27.47,12.38,41.83C26.85-29.2,26.98-17.15,25.01-5.86"/>
					</g>
					<g id="g404" transform="translate(559.3516,216.6973)" class="st1">
						<path id="path406" class="st98" d="M25.01-5.86c3.98-9.6,5.49-19.46,5.39-27.88c7.78,3.18,24.03,2.87,34.38-2.04
							c4.23,9.64,7.05,19.72,7.97,29.59C56.7-6.39,40.19-3.2,25.01-5.86"/>
					</g>
					<g id="g408" transform="translate(546.0996,132.4609)" class="st1">
						<path id="path410" class="st99" d="M25.01-5.86c-0.68-0.23-1.35-0.44-2.03-0.65c-0.39-4.55,0.48-9.1,3.36-13.71
							c1.72-2.76,3.73-5.02,5.88-6.86C44.63-20.43,56.76-11.5,67.24-0.26C79.55,12.96,93.76,31.5,85.18,43.01
							c-1.65,2.22-4.16,4.02-7.15,5.44C67.08,23.54,46.66,1.63,25.01-5.86"/>
					</g>
					<g id="g412" transform="translate(564.7422,188.8193)" class="st1">
						<path id="path414" class="st100" d="M25.01-5.86c-0.05-4.42-0.54-8.44-1.35-11.81C19.77-33.84,5.57-48.35,4.34-62.87
							c0.68,0.21,1.35,0.42,2.03,0.65c21.65,7.49,42.08,29.4,53.02,54.32C49.04-2.99,32.79-2.68,25.01-5.86"/>
					</g>
					<g id="g416" transform="translate(649.1016,280.7441)">
						<path id="path418" class="st101" d="M25.01-5.86c-0.11,0.06-0.23,0.11-0.34,0.18c-7.41-3.88-14.9-7.06-21.9-9.78
							c-10.9-4.25-22.96-8.84-33.14-9.9c9.39-10.32,15.32-23.67,13.38-44.78c0-0.03-0.01-0.07-0.01-0.1
							c3.94,0.05,7.86,0.29,11.72,0.89c22.24,3.42,39.65,13.26,53.31,25.61C45.2-27.6,38.06-13.02,25.01-5.86"/>
					</g>
					<g id="g420" transform="translate(593.7207,261.2402)">
						<path id="path422" class="st102" d="M25.01-5.86c-3.29-0.34-6.39-0.32-9.18,0.2C-0.23-2.63-21.51,13.81-40.4,26.49
							c-15.4,10.34-42.07,31.99-61.33,22.35c9-10.9,20.51-18.58,32.2-29.35c9.58-8.82,22.75-22.59,26.84-34.56
							c7.41-4.57,14.29-9.45,19.39-14.49c6.37-6.28,10.88-13.49,13.93-20.86c15.18,2.67,31.69-0.52,47.74-0.33
							c0,0.03,0.01,0.06,0.01,0.1C40.33-29.54,34.4-16.19,25.01-5.86"/>
					</g>
					<g id="g424" transform="translate(540.6465,307.8516)" class="st1">
						<path id="path426" class="st103" d="M25.01-5.86c-3.8,1.25-8.1,2.94-12.64,4.88c8.19-10.95,21.98-17.7,32.09-25.27
							c11.75-8.81,24.36-16.04,33.62-26.22c10.18,1.06,22.24,5.65,33.14,9.9c7,2.73,14.49,5.91,21.9,9.78
							c-19.94,10.75-43.1,7.66-54.36,17.98C61.45-15.73,40.62-11.01,25.01-5.86"/>
					</g>
					<g id="g428" transform="translate(560.0996,287.4609)">
						<path id="path430" class="st104" d="M25.01-5.86C14.9,1.71,1.11,8.46-7.08,19.41c-10.44,4.48-22.12,10.37-31.85,15.7
							c-15.75,8.63-29.81,18.38-43.58,20.43c1.08-9.96,4.91-20.23,11.91-29.75c0.8-1.09,1.64-2.13,2.49-3.16
							c19.26,9.63,45.93-12.01,61.33-22.35c18.89-12.69,40.17-29.13,56.23-32.16c2.79-0.53,5.89-0.55,9.18-0.2
							C49.37-21.91,36.76-14.67,25.01-5.86"/>
					</g>
					<g id="g432" transform="translate(176.6001,336.127)">
						<path id="path434" class="st105" d="M25.01-5.86c7.35,6.33,15.11,4.77,22.2,2.62c-2.38,8.02-2.68,16.73,1.3,26.71
							c3.68,9.24,13.39,16.38,25.29,21.75c-0.28,0.25-0.58,0.5-0.88,0.73c-12.45,9.62-30.22-0.36-50.91-2.49
							C8.57,27.69-5.43,7.56-8.29-15.99C3.28-22.68,12.83-37.3,25.79-44.41c2.58-1.41,5.67-2.73,9.13-3.83
							c-4,5.29-8.33,10.28-10.92,15.49C19.07-22.81,16.24-13.41,25.01-5.86"/>
					</g>
					<g id="g436" transform="translate(225.3862,387.209)">
						<path id="path438" class="st106" d="M25.01-5.86c-11.9-5.37-21.6-12.51-25.29-21.75c-3.98-9.99-3.68-18.7-1.3-26.71
							c3.18-0.97,6.23-2.05,9.04-2.6C17.69-58.9,28.73-59,37.05-57.27C34.3-37.98,35.32-15.09,25.01-5.86"/>
					</g>
					<g id="g440" transform="translate(524.791,348.3457)">
						<path id="path442" class="st107" d="M25.01-5.86c20.32-4.1,49.51,3.33,71.52-1.9c0.11-0.02,0.21-0.06,0.32-0.08
							c5.12,15.18,9.52,30.37,2.71,40.71c-14.19-3.65-29.98-10.41-42.23-15.61C46.15,12.51,31.69,6.27,25.01-5.86"/>
					</g>
					<g id="g444" transform="translate(502.4941,367.6387)">
						<path id="path446" class="st108" d="M25.01-5.86c3.48-11.87,11.68-17.15,22.3-19.29c6.68,12.13,21.14,18.37,32.3,23.11
							c12.26,5.21,28.04,11.96,42.23,15.61c-1.11,1.68-2.5,3.23-4.24,4.63c-10.32,8.31-35.01,5.21-50.59,2.11
							c-15.12-3.01-27.78-7.6-41.4-8.66C23.46,6.74,23,0.97,25.01-5.86"/>
					</g>
					<g id="g448" transform="translate(224.5073,387.9404)">
						<path id="path450" class="st109" d="M25.01-5.86c0.3-0.23,0.59-0.48,0.88-0.73C40.14-0.16,57.55,3.74,71.6,5.66
							C76.89,6.38,83.32,6.8,90.15,7c-12.46,9.47-30.33,9.56-44.33,12.59c-9.63,2.09-19.33,3.37-28.49,5.62
							c-2.23-0.3-4.32-0.73-6.25-1.3C-0.07,20.61-11.87,7.55-22.14-4.03c-1.24-1.4-2.5-2.85-3.76-4.33
							C-5.21-6.22,12.56,3.76,25.01-5.86"/>
					</g>
					<g id="g452" transform="translate(225.3862,387.209)">
						<path id="path454" class="st110" d="M25.01-5.86c10.32-9.23,9.29-32.12,12.05-51.41c0.56,0.12,1.11,0.24,1.65,0.38
							c21.32,5.31,43.17,24.32,62.67,30.63c1.75,6.49,1.63,13.52-1.82,21.01c-2.61,5.67-6.15,9.84-10.28,12.99
							c-6.83-0.2-13.26-0.62-18.55-1.34C56.67,4.47,39.26,0.57,25.01-5.86"/>
					</g>
					<g id="g456" transform="translate(590.5273,303.8574)">
						<path id="path458" class="st111" d="M25.01-5.86c-5.55,10.3,0.67,26.4,6.1,42.51c-0.11,0.03-0.22,0.06-0.32,0.08
							c-22,5.23-51.2-2.19-71.52,1.9c-2.31-4.2-3.7-9.09-3.69-14.88c0.01-8.46,2.74-15.14,6.91-20.73
							c4.54-1.95,8.84-3.63,12.63-4.88C-9.27-7,11.57-11.73,28.88-10.81C27.37-9.43,26.06-7.81,25.01-5.86"/>
					</g>
					<g id="g460" transform="translate(469.0713,391.5557)">
						<path id="path462" class="st112" d="M25.01-5.86c-0.91-0.73-1.8-1.47-2.63-2.26C11.95-18.02,6.83-32.9,8.52-48.56
							c13.77-2.06,27.83-11.8,43.58-20.43c9.72-5.33,21.41-11.22,31.85-15.69c-4.18,5.59-6.9,12.27-6.91,20.73
							c-0.01,5.79,1.38,10.69,3.69,14.89c-10.62,2.14-18.81,7.42-22.3,19.29c-2.01,6.83-1.55,12.6,0.61,17.52
							c-1.75-0.14-3.51-0.22-5.3-0.23C42.96-12.54,33.23-10.09,25.01-5.86"/>
					</g>
					<g id="g464" transform="translate(374.7129,168.4814)" class="st1">
						<path id="path466" class="st113" d="M25.01-5.86c-5.03-9.27-11.88-16.73-18.6-21.97c7.81-4.42,18.46-18.68,20.19-30.22
							c10.89,2.6,21.3,6.75,30.27,12.39C45.66-32.75,37.51-16.55,25.01-5.86"/>
					</g>
					<g id="g468" transform="translate(356.1152,146.5137)">
						<path id="path470" class="st114" d="M25.01-5.86c-3.47-2.71-6.9-4.83-10.03-6.3c-14.65-6.88-34.16-5.15-46.36-12.53
							c1.93-1.46,3.95-2.84,6.1-4.14c18.34-11.05,45.65-13.19,70.48-7.26C43.47-24.54,32.82-10.29,25.01-5.86"/>
					</g>
					<g id="g472" transform="translate(434.5371,165.6074)" class="st1">
						<path id="path474" class="st115" d="M25.01-5.86c-4.08,3.44-7.42,7.06-9.44,10.85c-7.67,14.44-8.11,41.32-10,64
							c-1.51,18.15-1.3,51.6-19.8,61.35c-2.65-13.8-1.3-27.5-2.19-43.28c-0.8-14.09-3.42-35.14-11.44-45.21
							c0.82-7.6,1.12-14.92,0.46-21.24c-0.91-8.77-3.66-16.68-7.41-23.6c12.5-10.69,20.66-26.88,31.86-39.8
							c0.96,0.6,1.9,1.22,2.83,1.86C15.67-30.03,22.45-18.25,25.01-5.86"/>
					</g>
					<g id="g476" transform="translate(433.792,212.125)" class="st1">
						<path id="path478" class="st116" d="M25.01-5.86C24.47,4.5,21.9,16.4,22.75,27.7c-3.8,12.15-7.26,28.28-9.56,41.62
							c-3,17.42-4.14,34.24-10.82,46.26c-6.79-7.1-12.11-16.41-14.95-27.6c-0.35-1.39-0.64-2.77-0.91-4.15
							c18.5-9.75,18.29-43.2,19.8-61.35c1.89-22.68,2.33-49.56,10-64c2.02-3.79,5.36-7.41,9.44-10.85
							C28.81-37.59,25.85-21.93,25.01-5.86"/>
					</g>
					<g id="g480" transform="translate(298.0288,531.9531)" class="st1">
						<path id="path482" class="st117" d="M25.01-5.86c-12.46,6.39-25,9.82-35.03,6.54c-8.33-2.72-14.18-7.1-18.56-12.39
							c1.26-3.15,2.34-6.27,3.7-8.86c4.86-9.24,11.7-17.95,18.27-23.37C5.64-30.92,22.02-18.47,25.01-5.86"/>
					</g>
					<g id="g484" transform="translate(457.0918,307.0098)">
						<path id="path486" class="st118" d="M25.01-5.86c-7-10.07-6.05-19.69-1.16-29.21c14.21,3.8,29.11-3.74,40.43-9.55
							c8.91-4.57,19.77-10.1,29.67-16.21c-4.1,11.97-17.27,25.74-26.85,34.56C55.41-15.5,43.9-7.82,34.9,3.08
							C31.3,1.28,27.97-1.61,25.01-5.86"/>
					</g>
					<g id="g488" transform="translate(334.5986,505.7681)" class="st1">
						<path id="path490" class="st119" d="M25.01-5.86C15.06,3.22,1.8,13.47-11.56,20.32C-14.55,7.71-30.93-4.74-43.18-17.76
							c0.42-0.35,0.85-0.69,1.27-1.01C-24.27-32.23,4.65-37.38,21.7-48.9c5.5,2.81,10.27,7.21,13.57,14.01
							c2.46,5.06,3.49,9.94,3.53,14.66C33.96-14.73,29.2-9.69,25.01-5.86"/>
					</g>
					<g id="g492" transform="translate(452.5859,348.8594)" class="st1">
						<path id="path494" class="st120" d="M25.01-5.86c-0.3,0.05-0.6,0.11-0.9,0.14C9.63-3.92-5.34-9.58-16.42-21.16
							C-9.74-33.18-8.6-50-5.6-67.42c2.3-13.33,5.76-29.47,9.56-41.62c0.71,9.48,3.83,18.53,12.58,25.86
							c3.82,3.19,7.79,5.18,11.81,6.25c-4.88,9.53-5.83,19.14,1.16,29.21c2.96,4.26,6.3,7.14,9.89,8.94
							c-0.85,1.03-1.68,2.07-2.49,3.16C29.92-26.1,26.09-15.82,25.01-5.86"/>
					</g>
					<g id="g496" transform="translate(194.3105,280.5742)">
						<path id="path498" class="st121" d="M25.01-5.86c-1.75,4.74-4.67,9.05-7.8,13.17c-3.47,1.11-6.56,2.42-9.14,3.83
							C-4.88,18.25-14.43,32.87-26,39.56c-0.71-5.83-0.74-11.87,0.09-18.1c3.03-22.67,20.38-47,42.57-62.69
							C24.18-31.26,27.73-13.25,25.01-5.86"/>
					</g>
					<g id="g500" transform="translate(318.2407,286.707)">
						<path id="path502" class="st122" d="M25.01-5.86c7.06,10.39,17.1,22.76,25.78,32.61C62.55,40.1,75.01,51.6,80.13,64.44
							c-9.85,0.95-20.55-0.66-31.18-5.45c-1.19-0.54-2.35-1.11-3.5-1.71c6.6-21.05-20.49-43.3-33.88-56.51
							c-16.2-15.98-36.56-33.55-42.73-48.69c-1.09-2.67-1.73-5.75-2.05-9.11c11.87,7.05,21.49,18.01,32.49,27.8
							C7.29-22.11,15.23-12.25,25.01-5.86"/>
					</g>
					<g id="g504" transform="translate(381.1001,304.4609)">
						<path id="path506" class="st123" d="M25.01-5.86C12.78-6.69,5.86-13.43,1.47-23.19c11.89-8.71,15.32-25.09,17.87-37.57
							c2.17-10.65,4.9-23.81,6.23-36.25C33.6-86.94,36.21-65.89,37.01-51.8c0.89,15.78-0.45,29.49,2.19,43.28
							C35.35-6.48,30.68-5.48,25.01-5.86"/>
					</g>
					<g id="g508" transform="translate(411.1602,333.5625)">
						<path id="path510" class="st124" d="M25.01-5.86c-0.25,0.46-0.5,0.92-0.77,1.36C16.69,7.88,3.05,16.05-12.8,17.57
							C-17.91,4.74-30.38-6.76-42.13-20.11c-8.68-9.85-18.72-22.22-25.78-32.61c7.62,4.98,16.36,7.86,27.11,5.7
							c4.85-0.98,8.87-2.82,12.21-5.27c4.39,9.76,11.31,16.5,23.54,17.33c5.67,0.38,10.34-0.62,14.2-2.65
							c0.27,1.38,0.56,2.77,0.91,4.15C12.9-22.27,18.22-12.96,25.01-5.86"/>
					</g>
					<g id="g512" transform="translate(289.6494,400.8027)">
						<path id="path514" class="st125" d="M25.01-5.86C35.07-5.57,46-5.76,55.46-6.21c17.7-0.84,34.41-3.39,47.61,0.58
							C97.63,2.58,89.69,9.86,79.35,15.1c-1.18,0.6-2.37,1.14-3.56,1.67C63.35-1.26,29.26,5.93,10.65,8.12
							c-19.82,2.33-42.59,6.4-58.47,4.23c9.16-2.25,18.85-3.53,28.49-5.62C-5.32,3.69,12.55,3.61,25.01-5.86"/>
					</g>
					<g id="g516" transform="translate(373.3545,357)">
						<path id="path518" class="st126" d="M25.01-5.86c0.16,0.4,0.34,0.81,0.48,1.21c4.92,13.7,2.69,29.5-6.13,42.83
							c-13.2-3.96-29.9-1.42-47.61-0.58c-9.46,0.45-20.39,0.64-30.45,0.34c4.14-3.14,7.68-7.32,10.28-12.99
							c3.45-7.49,3.57-14.52,1.82-21.01c11.07,3.58,21.38,3.07,30.4-6.37c3.31-3.47,5.4-7.02,6.53-10.6
							c1.15,0.59,2.31,1.17,3.5,1.71C4.46-6.53,15.16-4.91,25.01-5.86"/>
					</g>
					<g id="g520" transform="translate(367.707,401.0371)">
						<path id="path522" class="st127" d="M25.01-5.86c0.47,0.14,0.94,0.27,1.39,0.42c13.51,4.62,24.31,15.89,29.33,30.67
							c-11.86,7.46-20.75,22.23-31.67,36.66C18.6,69.11,12.08,77.22,5.69,84.5c-0.03-4.72-1.07-9.6-3.52-14.66
							c-3.3-6.8-8.08-11.2-13.57-14.01C-2,49.47,3.79,41.18,2.1,28.48c-0.65-4.86-2.17-8.79-4.35-11.94
							c1.19-0.52,2.38-1.07,3.56-1.67C11.63,9.62,19.57,2.35,25.01-5.86"/>
					</g>
					<g id="g524" transform="translate(466.4434,389.2988)">
						<path id="path526" class="st128" d="M25.01-5.86c0.83,0.79,1.72,1.53,2.63,2.26C12.68,4.08,2.75,17.62,0.79,32.68
							c-0.06,0.47-0.09,0.95-0.14,1.43c-14.81-5.98-30.73-5-43.17,2.55c-0.17,0.1-0.33,0.22-0.5,0.32
							C-48.03,22.19-58.83,10.92-72.33,6.3c-0.46-0.16-0.93-0.28-1.39-0.42c8.82-13.32,11.05-29.13,6.13-42.83
							c-0.15-0.41-0.32-0.81-0.48-1.21c15.84-1.53,29.48-9.7,37.04-22.08c0.27-0.44,0.51-0.91,0.77-1.36
							C-19.2-50.02-4.23-44.36,10.25-46.16c0.3-0.04,0.6-0.1,0.9-0.14C9.45-30.64,14.58-15.76,25.01-5.86"/>
					</g>
				</g>
			</g>
		</g>
	</g>
</g>
</svg>
